<svg xmlns="http://www.w3.org/2000/svg" viewBox="-12.4 -95.3 474 134.5" role="img" aria-label="Periapsis">
  <defs>
    <clipPath id="periClip"><path d="M89 0L93.8 0.1L95.6 0.3L96.9 0.7L97.9 1.3L98.7 2.1L99.3 3.1L99.7 4.4L99.9 6.2L100 11L100 130.4L99.9 135.2L99.7 137L99.3 138.3L98.7 139.3L97.9 140.1L96.9 140.7L95.6 141.1L93.8 141.3L89 141.4L11 141.4L6.2 141.3L4.4 141.1L3.1 140.7L2.1 140.1L1.3 139.3L0.7 138.3L0.3 137L0.1 135.2L0 130.4L0 11L0.1 6.2L0.3 4.4L0.7 3.1L1.3 2.1L2.1 1.3L3.1 0.7L4.4 0.3L6.2 0.1L11 0Z"/></clipPath>
    <clipPath id="orbitCut"><rect x="-10" y="-10" width="120" height="125"/></clipPath>
  </defs>
  <!-- wordmark: Inter SemiBold, converted to paths -->
  <path d="M5.6 0V-64H29.9Q37 -64 42.1 -61.4Q47.2 -58.9 50 -54.3Q52.7 -49.6 52.7 -43.4Q52.7 -37.1 49.9 -32.5Q47.1 -27.9 42 -25.3Q36.8 -22.7 29.7 -22.7H12.1V-32.4H29Q33 -32.4 35.7 -33.7Q38.5 -35.1 39.9 -37.6Q41.4 -40 41.4 -43.4Q41.4 -46.7 39.9 -49.2Q38.5 -51.6 35.7 -53Q33 -54.3 29 -54.3H17V0Z M80.7 1Q73.8 1 68.8 -2Q63.8 -5.1 61 -10.5Q58.3 -15.9 58.3 -22.9Q58.3 -29.9 61.1 -35.3Q63.9 -40.7 68.8 -43.8Q73.7 -46.9 80.2 -46.9Q85 -46.9 89 -45.2Q93 -43.6 95.9 -40.5Q98.8 -37.4 100.4 -33Q102 -28.6 102 -23.1V-20.1H62.8V-27.6H96.5L91.6 -25.5Q91.6 -29.4 90.2 -32.3Q88.9 -35.1 86.4 -36.7Q83.9 -38.2 80.3 -38.2Q76.9 -38.2 74.3 -36.7Q71.8 -35.1 70.4 -32.3Q69 -29.5 69 -25.7V-20.9Q69 -16.8 70.4 -13.8Q71.9 -10.8 74.5 -9.2Q77.2 -7.6 80.9 -7.6Q83.6 -7.6 85.7 -8.4Q87.8 -9.1 89.2 -10.6Q90.6 -12.1 91.2 -14L101.4 -13.5Q100.5 -9.2 97.6 -6Q94.7 -2.7 90.4 -0.8Q86 1 80.7 1Z M109.8 0V-46H120.3V-38.3H120.6Q121.8 -42.3 124.6 -44.4Q127.4 -46.4 131.8 -46.4Q132.8 -46.4 133.8 -46.4Q134.7 -46.3 135.4 -46.2V-36.5Q134.8 -36.6 133.3 -36.7Q131.8 -36.9 130.3 -36.9Q127.6 -36.9 125.4 -35.6Q123.2 -34.4 122 -32.1Q120.7 -29.7 120.7 -26.3V0Z M141.9 0V-46H152.9V0ZM147.4 -52.7Q144.6 -52.7 142.8 -54.5Q140.9 -56.3 140.9 -58.9Q140.9 -61.5 142.8 -63.2Q144.6 -65 147.4 -65Q150.1 -65 152 -63.2Q153.9 -61.5 153.9 -58.8Q153.9 -56.3 152 -54.5Q150.1 -52.7 147.4 -52.7Z M176.7 0.8Q172.2 0.8 168.6 -0.8Q165 -2.3 163 -5.4Q160.9 -8.5 160.9 -13Q160.9 -16.9 162.4 -19.5Q163.9 -22 166.4 -23.6Q168.9 -25.1 172.1 -25.9Q175.4 -26.7 178.9 -27Q183.1 -27.5 185.6 -27.9Q188.1 -28.2 189.2 -28.9Q190.3 -29.7 190.3 -31.2V-31.5Q190.3 -33.6 189.3 -35.1Q188.3 -36.6 186.4 -37.5Q184.6 -38.3 182 -38.3Q179.3 -38.3 177.3 -37.5Q175.3 -36.6 174.1 -35.2Q172.9 -33.7 172.6 -31.9L162.2 -32.3Q162.8 -36.8 165.3 -40Q167.9 -43.3 172.2 -45Q176.5 -46.8 182.1 -46.8Q186.3 -46.8 189.8 -45.8Q193.3 -44.8 195.8 -42.8Q198.4 -40.8 199.7 -37.9Q201.1 -35 201.1 -31.2V0H190.4V-6.5H190.2Q189.1 -4.4 187.4 -2.8Q185.6 -1.1 183 -0.2Q180.4 0.8 176.7 0.8ZM179.4 -7.3Q182.9 -7.3 185.4 -8.6Q187.8 -9.9 189.1 -12.1Q190.3 -14.2 190.3 -16.9V-22Q189.8 -21.6 188.8 -21.3Q187.7 -21 186.3 -20.7Q184.9 -20.4 183.3 -20.2Q181.7 -19.9 180.2 -19.7Q177.8 -19.4 175.9 -18.6Q173.9 -17.9 172.7 -16.5Q171.6 -15.2 171.6 -13.1Q171.6 -11.3 172.5 -10Q173.5 -8.7 175.3 -8Q177.1 -7.3 179.4 -7.3Z M211.2 18V-46H221.9V-39.3H222.2Q223.5 -41.5 225.4 -43.2Q227.4 -44.9 230.1 -45.9Q232.7 -46.8 235.9 -46.8Q241.7 -46.8 246.1 -43.9Q250.5 -40.9 253 -35.5Q255.5 -30.2 255.5 -23Q255.5 -15.7 253.1 -10.4Q250.6 -5 246.2 -2Q241.8 0.9 235.9 0.9Q232.7 0.9 230.1 -0.1Q227.5 -1.1 225.5 -2.8Q223.6 -4.6 222.3 -7H222.1V18ZM233.2 -8.2Q236.7 -8.2 239.2 -9.9Q241.7 -11.7 243.1 -15Q244.5 -18.4 244.5 -23Q244.5 -27.6 243.1 -30.9Q241.7 -34.2 239.2 -36Q236.7 -37.8 233.2 -37.8Q229.6 -37.8 227 -35.9Q224.4 -34.1 223 -30.8Q221.6 -27.5 221.6 -23Q221.6 -18.5 223 -15.2Q224.4 -11.9 227 -10Q229.7 -8.2 233.2 -8.2Z M281.4 1.1Q275.9 1.1 271.5 -0.6Q267.2 -2.4 264.5 -5.7Q261.9 -9 261.4 -13.7L272 -14.1Q272.5 -10.8 274.9 -9Q277.3 -7.2 281.3 -7.2Q285.3 -7.2 287.6 -8.7Q289.9 -10.3 289.9 -12.7Q289.9 -14.8 288.2 -16.1Q286.6 -17.3 283.6 -18L275.8 -19.6Q269.2 -21 265.8 -24.3Q262.5 -27.6 262.5 -32.8Q262.5 -37 264.8 -40.2Q267.1 -43.3 271.3 -45.1Q275.4 -46.8 281 -46.8Q286.5 -46.8 290.6 -45.1Q294.7 -43.3 297.1 -40.1Q299.5 -36.8 299.9 -32.4L289.7 -31.9Q289.5 -34.8 287.2 -36.8Q285 -38.7 281.2 -38.7Q277.7 -38.7 275.5 -37.1Q273.4 -35.5 273.4 -33.2Q273.4 -31.1 275 -29.8Q276.6 -28.5 279.6 -27.9L287.8 -26.2Q294.5 -24.8 297.7 -21.7Q301 -18.6 301 -13.6Q301 -9.1 298.5 -5.9Q296 -2.6 291.5 -0.8Q287.1 1.1 281.4 1.1Z M308.8 0V-46H319.7V0ZM314.3 -52.7Q311.5 -52.7 309.6 -54.5Q307.8 -56.3 307.8 -58.9Q307.8 -61.5 309.6 -63.2Q311.5 -65 314.2 -65Q317 -65 318.9 -63.2Q320.8 -61.5 320.8 -58.8Q320.8 -56.3 318.9 -54.5Q317 -52.7 314.3 -52.7Z M347.7 1.1Q342.2 1.1 337.8 -0.6Q333.5 -2.4 330.8 -5.7Q328.1 -9 327.7 -13.7L338.3 -14.1Q338.8 -10.8 341.2 -9Q343.6 -7.2 347.6 -7.2Q351.6 -7.2 353.9 -8.7Q356.1 -10.3 356.1 -12.7Q356.1 -14.8 354.5 -16.1Q352.9 -17.3 349.9 -18L342.1 -19.6Q335.5 -21 332.1 -24.3Q328.8 -27.6 328.8 -32.8Q328.8 -37 331.1 -40.2Q333.4 -43.3 337.5 -45.1Q341.7 -46.8 347.3 -46.8Q352.8 -46.8 356.9 -45.1Q361 -43.3 363.4 -40.1Q365.8 -36.8 366.1 -32.4L356 -31.9Q355.8 -34.8 353.5 -36.8Q351.3 -38.7 347.5 -38.7Q344 -38.7 341.8 -37.1Q339.7 -35.5 339.7 -33.2Q339.7 -31.1 341.3 -29.8Q342.9 -28.5 345.9 -27.9L354 -26.2Q360.8 -24.8 364 -21.7Q367.2 -18.6 367.2 -13.6Q367.2 -9.1 364.7 -5.9Q362.2 -2.6 357.8 -0.8Q353.4 1.1 347.7 1.1Z" fill="#F4F5F7"/>
  <!-- glyph: sqrt2 of cap height, centered on the cap-to-baseline band -->
  <g transform="translate(379.5 -77.3) scale(0.6400)">
    <g clip-path="url(#periClip)">
    <circle cx="-49.792" cy="174.618" r="150" fill="#D96C4A"/>
    <g clip-path="url(#orbitCut)">
      <path d="M64.84 35.90L65.86 36.78L66.87 37.67L67.87 38.58L68.85 39.50L69.83 40.44L70.79 41.38L71.74 42.34L72.68 43.32L73.60 44.30L74.52 45.30L75.42 46.31L76.31 47.34L77.18 48.37L78.05 49.42L78.90 50.49L79.73 51.56L80.56 52.65L81.37 53.75L82.16 54.86L82.95 55.99L83.71 57.12L84.47 58.27L85.21 59.44L85.93 60.61L86.64 61.80L87.34 63.00L88.02 64.21L88.69 65.43L89.33 66.67L89.97 67.92L90.59 69.17L91.19 70.45L91.78 71.73L92.35 73.02L92.90 74.33L93.44 75.64L93.96 76.97L94.46 78.31L94.94 79.66L95.41 81.03L95.86 82.40L96.29 83.78L96.70 85.18L97.10 86.59L97.47 88.00L97.83 89.43L98.17 90.87L98.48 92.32L98.78 93.78L99.06 95.25L99.32 96.73L99.56 98.21L99.77 99.71L99.97 101.22L100.14 102.74L100.30 104.27L100.43 105.81L100.53 107.36L100.62 108.91L100.68 110.48L100.73 112.06L100.74 113.64L100.74 115.23L100.71 116.83L100.65 118.44L100.57 120.06L100.47 121.69L100.34 123.33L100.18 124.97L100.00 126.62L99.79 128.28L99.56 129.94L99.30 131.62L99.01 133.30L98.70 134.99L98.35 136.68L97.98 138.39L97.58 140.10L97.15 141.81L96.68 143.53L96.19 145.26L95.67 147.00L95.12 148.74L94.54 150.48L93.92 152.23L93.27 153.99L92.59 155.75L91.88 157.52L91.14 159.37L151.43 151.19L150.20 149.43L148.98 147.61L147.78 145.80L146.58 144.01L145.41 142.24L144.24 140.48L143.09 138.73L141.96 137.00L140.84 135.29L139.73 133.59L138.63 131.91L137.54 130.24L136.47 128.58L135.40 126.94L134.35 125.32L133.30 123.70L132.27 122.10L131.24 120.52L130.23 118.95L129.22 117.39L128.22 115.84L127.23 114.31L126.25 112.79L125.27 111.28L124.30 109.79L123.34 108.31L122.38 106.84L121.43 105.38L120.49 103.94L119.55 102.50L118.61 101.08L117.68 99.67L116.76 98.28L115.84 96.89L114.92 95.52L114.01 94.15L113.10 92.80L112.19 91.46L111.28 90.13L110.38 88.81L109.48 87.50L108.58 86.21L107.69 84.92L106.79 83.64L105.90 82.38L105.01 81.12L104.12 79.88L103.23 78.64L102.34 77.42L101.45 76.20L100.56 75.00L99.67 73.80L98.78 72.62L97.89 71.44L97.00 70.28L96.10 69.12L95.21 67.97L94.31 66.83L93.41 65.71L92.51 64.59L91.61 63.48L90.71 62.38L89.80 61.28L88.89 60.20L87.98 59.13L87.07 58.06L86.15 57.01L85.23 55.96L84.30 54.92L83.38 53.89L82.44 52.87L81.51 51.85L80.57 50.85L79.62 49.85L78.67 48.87L77.72 47.89L76.76 46.92L75.80 45.95L74.83 45.00L73.86 44.05L72.88 43.12L71.89 42.19L70.90 41.27L69.91 40.35L68.90 39.45L67.90 38.55L66.88 37.66L65.86 36.78L64.84 35.90Z" fill="#E0855F"/>
      <path d="M54.53 27.99L53.67 27.39L52.80 26.80L51.93 26.21L51.05 25.62L50.17 25.04L49.29 24.46L48.40 23.89L47.51 23.31L46.62 22.74L45.72 22.18L44.82 21.62L43.91 21.06L43.00 20.50L42.08 19.94L41.17 19.39L40.24 18.84L39.31 18.30L38.38 17.76L37.45 17.21L36.51 16.68L35.56 16.14L34.61 15.60L33.66 15.07L32.70 14.54L31.73 14.01L30.77 13.48L29.79 12.96L28.82 12.43L27.83 11.91L26.85 11.39L25.85 10.86L24.86 10.34L23.85 9.82L22.85 9.30L21.83 8.79L20.81 8.27L19.79 7.75L18.76 7.23L17.73 6.71L16.69 6.19L15.64 5.68L14.59 5.16L13.54 4.64L12.47 4.12L11.40 3.60L10.33 3.07L9.25 2.55L8.16 2.03L7.07 1.50L5.97 0.97L4.87 0.44L3.76 -0.09L2.64 -0.62L1.51 -1.16L0.38 -1.69L-0.76 -2.23L-1.90 -2.78L-3.06 -3.32L-4.21 -3.87L-5.38 -4.42L-6.55 -4.98L-7.74 -5.54L-8.92 -6.10L-10.12 -6.67L-11.32 -7.24L-12.54 -7.81L-13.75 -8.39L-14.98 -8.98L-16.22 -9.57L-17.46 -10.16L-18.71 -10.76L-19.97 -11.36L-21.24 -11.97L-22.52 -12.59L-23.81 -13.21L-25.10 -13.84L-26.41 -14.47L-27.72 -15.11L-29.04 -15.76L-30.38 -16.42L-31.72 -17.08L-33.07 -17.75L-34.43 -18.43L-35.80 -19.11L-37.18 -19.81L-38.58 -20.51L-39.98 -21.22L-41.39 -21.94L-42.76 -22.67L-43.99 22.50L-42.69 21.84L-41.44 21.21L-40.20 20.59L-38.95 20.00L-37.71 19.43L-36.47 18.88L-35.22 18.35L-33.98 17.85L-32.74 17.36L-31.50 16.89L-30.26 16.44L-29.02 16.01L-27.79 15.60L-26.55 15.21L-25.32 14.84L-24.09 14.49L-22.86 14.15L-21.63 13.84L-20.41 13.54L-19.19 13.26L-17.97 13.00L-16.75 12.75L-15.53 12.52L-14.32 12.31L-13.11 12.12L-11.91 11.94L-10.70 11.78L-9.50 11.64L-8.31 11.51L-7.11 11.40L-5.92 11.30L-4.74 11.22L-3.55 11.16L-2.38 11.11L-1.20 11.08L-0.03 11.06L1.14 11.05L2.30 11.07L3.46 11.09L4.61 11.13L5.76 11.19L6.91 11.25L8.05 11.34L9.19 11.43L10.32 11.54L11.44 11.67L12.57 11.80L13.68 11.95L14.80 12.12L15.90 12.29L17.01 12.48L18.10 12.68L19.19 12.90L20.28 13.12L21.36 13.36L22.44 13.61L23.51 13.88L24.57 14.15L25.63 14.44L26.68 14.74L27.73 15.05L28.77 15.37L29.81 15.70L30.84 16.05L31.86 16.40L32.88 16.77L33.89 17.15L34.90 17.53L35.89 17.93L36.89 18.34L37.88 18.76L38.86 19.19L39.83 19.63L40.80 20.08L41.76 20.54L42.72 21.01L43.66 21.49L44.61 21.98L45.54 22.48L46.47 22.99L47.39 23.51L48.31 24.04L49.22 24.57L50.12 25.12L51.02 25.68L51.91 26.24L52.79 26.81L53.66 27.40L54.53 27.99Z" fill="#E0855F"/>
    </g>
    <circle cx="59.78" cy="31.82" r="4.0" fill="#D96C4A"/>
  </g>
  </g>
</svg>
