<svg xmlns="http://www.w3.org/2000/svg" viewBox="-12.44 -82 486.97 121.22" role="img" aria-label="Periapsis">
  <!-- wordmark: Inter SemiBold, converted to paths -->
  <path d="M5.6 0V-64H29.9Q37 -64 42.1 -61.4Q47.2 -58.9 50 -54.3Q52.7 -49.6 52.7 -43.4Q52.7 -37.1 49.9 -32.5Q47.1 -27.9 42 -25.3Q36.8 -22.7 29.7 -22.7H12.1V-32.4H29Q33 -32.4 35.7 -33.7Q38.5 -35.1 39.9 -37.6Q41.4 -40 41.4 -43.4Q41.4 -46.7 39.9 -49.2Q38.5 -51.6 35.7 -53Q33 -54.3 29 -54.3H17V0Z M80.7 1Q73.8 1 68.8 -2Q63.8 -5.1 61 -10.5Q58.3 -15.9 58.3 -22.9Q58.3 -29.9 61.1 -35.3Q63.9 -40.7 68.8 -43.8Q73.7 -46.9 80.2 -46.9Q85 -46.9 89 -45.2Q93 -43.6 95.9 -40.5Q98.8 -37.4 100.4 -33Q102 -28.6 102 -23.1V-20.1H62.8V-27.6H96.5L91.6 -25.5Q91.6 -29.4 90.2 -32.3Q88.9 -35.1 86.4 -36.7Q83.9 -38.2 80.3 -38.2Q76.9 -38.2 74.3 -36.7Q71.8 -35.1 70.4 -32.3Q69 -29.5 69 -25.7V-20.9Q69 -16.8 70.4 -13.8Q71.9 -10.8 74.5 -9.2Q77.2 -7.6 80.9 -7.6Q83.6 -7.6 85.7 -8.4Q87.8 -9.1 89.2 -10.6Q90.6 -12.1 91.2 -14L101.4 -13.5Q100.5 -9.2 97.6 -6Q94.7 -2.7 90.4 -0.8Q86 1 80.7 1Z M109.8 0V-46H120.3V-38.3H120.6Q121.8 -42.3 124.6 -44.4Q127.4 -46.4 131.8 -46.4Q132.8 -46.4 133.8 -46.4Q134.7 -46.3 135.4 -46.2V-36.5Q134.8 -36.6 133.3 -36.7Q131.8 -36.9 130.3 -36.9Q127.6 -36.9 125.4 -35.6Q123.2 -34.4 122 -32.1Q120.7 -29.7 120.7 -26.3V0Z M141.9 0V-46H152.9V0ZM147.4 -52.7Q144.6 -52.7 142.8 -54.5Q140.9 -56.3 140.9 -58.9Q140.9 -61.5 142.8 -63.2Q144.6 -65 147.4 -65Q150.1 -65 152 -63.2Q153.9 -61.5 153.9 -58.8Q153.9 -56.3 152 -54.5Q150.1 -52.7 147.4 -52.7Z M176.7 0.8Q172.2 0.8 168.6 -0.8Q165 -2.3 163 -5.4Q160.9 -8.5 160.9 -13Q160.9 -16.9 162.4 -19.5Q163.9 -22 166.4 -23.6Q168.9 -25.1 172.1 -25.9Q175.4 -26.7 178.9 -27Q183.1 -27.5 185.6 -27.9Q188.1 -28.2 189.2 -28.9Q190.3 -29.7 190.3 -31.2V-31.5Q190.3 -33.6 189.3 -35.1Q188.3 -36.6 186.4 -37.5Q184.6 -38.3 182 -38.3Q179.3 -38.3 177.3 -37.5Q175.3 -36.6 174.1 -35.2Q172.9 -33.7 172.6 -31.9L162.2 -32.3Q162.8 -36.8 165.3 -40Q167.9 -43.3 172.2 -45Q176.5 -46.8 182.1 -46.8Q186.3 -46.8 189.8 -45.8Q193.3 -44.8 195.8 -42.8Q198.4 -40.8 199.7 -37.9Q201.1 -35 201.1 -31.2V0H190.4V-6.5H190.2Q189.1 -4.4 187.4 -2.8Q185.6 -1.1 183 -0.2Q180.4 0.8 176.7 0.8ZM179.4 -7.3Q182.9 -7.3 185.4 -8.6Q187.8 -9.9 189.1 -12.1Q190.3 -14.2 190.3 -16.9V-22Q189.8 -21.6 188.8 -21.3Q187.7 -21 186.3 -20.7Q184.9 -20.4 183.3 -20.2Q181.7 -19.9 180.2 -19.7Q177.8 -19.4 175.9 -18.6Q173.9 -17.9 172.7 -16.5Q171.6 -15.2 171.6 -13.1Q171.6 -11.3 172.5 -10Q173.5 -8.7 175.3 -8Q177.1 -7.3 179.4 -7.3Z M211.2 18V-46H221.9V-39.3H222.2Q223.5 -41.5 225.4 -43.2Q227.4 -44.9 230.1 -45.9Q232.7 -46.8 235.9 -46.8Q241.7 -46.8 246.1 -43.9Q250.5 -40.9 253 -35.5Q255.5 -30.2 255.5 -23Q255.5 -15.7 253.1 -10.4Q250.6 -5 246.2 -2Q241.8 0.9 235.9 0.9Q232.7 0.9 230.1 -0.1Q227.5 -1.1 225.5 -2.8Q223.6 -4.6 222.3 -7H222.1V18ZM233.2 -8.2Q236.7 -8.2 239.2 -9.9Q241.7 -11.7 243.1 -15Q244.5 -18.4 244.5 -23Q244.5 -27.6 243.1 -30.9Q241.7 -34.2 239.2 -36Q236.7 -37.8 233.2 -37.8Q229.6 -37.8 227 -35.9Q224.4 -34.1 223 -30.8Q221.6 -27.5 221.6 -23Q221.6 -18.5 223 -15.2Q224.4 -11.9 227 -10Q229.7 -8.2 233.2 -8.2Z M281.4 1.1Q275.9 1.1 271.5 -0.6Q267.2 -2.4 264.5 -5.7Q261.9 -9 261.4 -13.7L272 -14.1Q272.5 -10.8 274.9 -9Q277.3 -7.2 281.3 -7.2Q285.3 -7.2 287.6 -8.7Q289.9 -10.3 289.9 -12.7Q289.9 -14.8 288.2 -16.1Q286.6 -17.3 283.6 -18L275.8 -19.6Q269.2 -21 265.8 -24.3Q262.5 -27.6 262.5 -32.8Q262.5 -37 264.8 -40.2Q267.1 -43.3 271.3 -45.1Q275.4 -46.8 281 -46.8Q286.5 -46.8 290.6 -45.1Q294.7 -43.3 297.1 -40.1Q299.5 -36.8 299.9 -32.4L289.7 -31.9Q289.5 -34.8 287.2 -36.8Q285 -38.7 281.2 -38.7Q277.7 -38.7 275.5 -37.1Q273.4 -35.5 273.4 -33.2Q273.4 -31.1 275 -29.8Q276.6 -28.5 279.6 -27.9L287.8 -26.2Q294.5 -24.8 297.7 -21.7Q301 -18.6 301 -13.6Q301 -9.1 298.5 -5.9Q296 -2.6 291.5 -0.8Q287.1 1.1 281.4 1.1Z M308.8 0V-46H319.7V0ZM314.3 -52.7Q311.5 -52.7 309.6 -54.5Q307.8 -56.3 307.8 -58.9Q307.8 -61.5 309.6 -63.2Q311.5 -65 314.2 -65Q317 -65 318.9 -63.2Q320.8 -61.5 320.8 -58.8Q320.8 -56.3 318.9 -54.5Q317 -52.7 314.3 -52.7Z M347.7 1.1Q342.2 1.1 337.8 -0.6Q333.5 -2.4 330.8 -5.7Q328.1 -9 327.7 -13.7L338.3 -14.1Q338.8 -10.8 341.2 -9Q343.6 -7.2 347.6 -7.2Q351.6 -7.2 353.9 -8.7Q356.1 -10.3 356.1 -12.7Q356.1 -14.8 354.5 -16.1Q352.9 -17.3 349.9 -18L342.1 -19.6Q335.5 -21 332.1 -24.3Q328.8 -27.6 328.8 -32.8Q328.8 -37 331.1 -40.2Q333.4 -43.3 337.5 -45.1Q341.7 -46.8 347.3 -46.8Q352.8 -46.8 356.9 -45.1Q361 -43.3 363.4 -40.1Q365.8 -36.8 366.1 -32.4L356 -31.9Q355.8 -34.8 353.5 -36.8Q351.3 -38.7 347.5 -38.7Q344 -38.7 341.8 -37.1Q339.7 -35.5 339.7 -33.2Q339.7 -31.1 341.3 -29.8Q342.9 -28.5 345.9 -27.9L354 -26.2Q360.8 -24.8 364 -21.7Q367.2 -18.6 367.2 -13.6Q367.2 -9.1 364.7 -5.9Q362.2 -2.6 357.8 -0.8Q353.4 1.1 347.7 1.1Z" fill="#ededed"/>
  <!-- glyph: scaled to cap height, baseline-to-cap aligned -->
  <g transform="translate(366.99 -80.27) scale(0.9653)">
    <!-- orbit: 3-4-5 ellipse, e = 0.6 -->
    <ellipse cx="52" cy="50" rx="38" ry="30.4" fill="none" stroke="#ededed" stroke-width="5.5"/>
    <!-- planet: at the left focus -->
    <circle cx="29.2" cy="50" r="6.5" fill="#ededed"/>
    <!-- periapsis point -->
    <circle cx="14" cy="50" r="4.75" fill="#FF4F00"/>
  </g>
</svg>
