<svg xmlns="http://www.w3.org/2000/svg" viewBox="0 0 100 141.42" role="img" aria-label="Periapsis">
  <defs>
    <clipPath id="periClip"><path d="M89 0L93.8 0.1L95.6 0.3L96.9 0.7L97.9 1.3L98.7 2.1L99.3 3.1L99.7 4.4L99.9 6.2L100 11L100 130.4L99.9 135.2L99.7 137L99.3 138.3L98.7 139.3L97.9 140.1L96.9 140.7L95.6 141.1L93.8 141.3L89 141.4L11 141.4L6.2 141.3L4.4 141.1L3.1 140.7L2.1 140.1L1.3 139.3L0.7 138.3L0.3 137L0.1 135.2L0 130.4L0 11L0.1 6.2L0.3 4.4L0.7 3.1L1.3 2.1L2.1 1.3L3.1 0.7L4.4 0.3L6.2 0.1L11 0Z"></path></clipPath>
    <clipPath id="orbitCut"><rect x="-10" y="-10" width="120" height="125"></rect></clipPath>
  </defs>
  <g clip-path="url(#periClip)">
    <circle cx="-49.792" cy="174.618" r="150" fill="#D96C4A"></circle>
    <g clip-path="url(#orbitCut)">
      <path d="M64.84 35.90L65.86 36.78L66.87 37.67L67.87 38.58L68.85 39.50L69.83 40.44L70.79 41.38L71.74 42.34L72.68 43.32L73.60 44.30L74.52 45.30L75.42 46.31L76.31 47.34L77.18 48.37L78.05 49.42L78.90 50.49L79.73 51.56L80.56 52.65L81.37 53.75L82.16 54.86L82.95 55.99L83.71 57.12L84.47 58.27L85.21 59.44L85.93 60.61L86.64 61.80L87.34 63.00L88.02 64.21L88.69 65.43L89.33 66.67L89.97 67.92L90.59 69.17L91.19 70.45L91.78 71.73L92.35 73.02L92.90 74.33L93.44 75.64L93.96 76.97L94.46 78.31L94.94 79.66L95.41 81.03L95.86 82.40L96.29 83.78L96.70 85.18L97.10 86.59L97.47 88.00L97.83 89.43L98.17 90.87L98.48 92.32L98.78 93.78L99.06 95.25L99.32 96.73L99.56 98.21L99.77 99.71L99.97 101.22L100.14 102.74L100.30 104.27L100.43 105.81L100.53 107.36L100.62 108.91L100.68 110.48L100.73 112.06L100.74 113.64L100.74 115.23L100.71 116.83L100.65 118.44L100.57 120.06L100.47 121.69L100.34 123.33L100.18 124.97L100.00 126.62L99.79 128.28L99.56 129.94L99.30 131.62L99.01 133.30L98.70 134.99L98.35 136.68L97.98 138.39L97.58 140.10L97.15 141.81L96.68 143.53L96.19 145.26L95.67 147.00L95.12 148.74L94.54 150.48L93.92 152.23L93.27 153.99L92.59 155.75L91.88 157.52L91.14 159.37L151.43 151.19L150.20 149.43L148.98 147.61L147.78 145.80L146.58 144.01L145.41 142.24L144.24 140.48L143.09 138.73L141.96 137.00L140.84 135.29L139.73 133.59L138.63 131.91L137.54 130.24L136.47 128.58L135.40 126.94L134.35 125.32L133.30 123.70L132.27 122.10L131.24 120.52L130.23 118.95L129.22 117.39L128.22 115.84L127.23 114.31L126.25 112.79L125.27 111.28L124.30 109.79L123.34 108.31L122.38 106.84L121.43 105.38L120.49 103.94L119.55 102.50L118.61 101.08L117.68 99.67L116.76 98.28L115.84 96.89L114.92 95.52L114.01 94.15L113.10 92.80L112.19 91.46L111.28 90.13L110.38 88.81L109.48 87.50L108.58 86.21L107.69 84.92L106.79 83.64L105.90 82.38L105.01 81.12L104.12 79.88L103.23 78.64L102.34 77.42L101.45 76.20L100.56 75.00L99.67 73.80L98.78 72.62L97.89 71.44L97.00 70.28L96.10 69.12L95.21 67.97L94.31 66.83L93.41 65.71L92.51 64.59L91.61 63.48L90.71 62.38L89.80 61.28L88.89 60.20L87.98 59.13L87.07 58.06L86.15 57.01L85.23 55.96L84.30 54.92L83.38 53.89L82.44 52.87L81.51 51.85L80.57 50.85L79.62 49.85L78.67 48.87L77.72 47.89L76.76 46.92L75.80 45.95L74.83 45.00L73.86 44.05L72.88 43.12L71.89 42.19L70.90 41.27L69.91 40.35L68.90 39.45L67.90 38.55L66.88 37.66L65.86 36.78L64.84 35.90Z" fill="#E0855F"></path>
      <path d="M54.53 27.99L53.67 27.39L52.80 26.80L51.93 26.21L51.05 25.62L50.17 25.04L49.29 24.46L48.40 23.89L47.51 23.31L46.62 22.74L45.72 22.18L44.82 21.62L43.91 21.06L43.00 20.50L42.08 19.94L41.17 19.39L40.24 18.84L39.31 18.30L38.38 17.76L37.45 17.21L36.51 16.68L35.56 16.14L34.61 15.60L33.66 15.07L32.70 14.54L31.73 14.01L30.77 13.48L29.79 12.96L28.82 12.43L27.83 11.91L26.85 11.39L25.85 10.86L24.86 10.34L23.85 9.82L22.85 9.30L21.83 8.79L20.81 8.27L19.79 7.75L18.76 7.23L17.73 6.71L16.69 6.19L15.64 5.68L14.59 5.16L13.54 4.64L12.47 4.12L11.40 3.60L10.33 3.07L9.25 2.55L8.16 2.03L7.07 1.50L5.97 0.97L4.87 0.44L3.76 -0.09L2.64 -0.62L1.51 -1.16L0.38 -1.69L-0.76 -2.23L-1.90 -2.78L-3.06 -3.32L-4.21 -3.87L-5.38 -4.42L-6.55 -4.98L-7.74 -5.54L-8.92 -6.10L-10.12 -6.67L-11.32 -7.24L-12.54 -7.81L-13.75 -8.39L-14.98 -8.98L-16.22 -9.57L-17.46 -10.16L-18.71 -10.76L-19.97 -11.36L-21.24 -11.97L-22.52 -12.59L-23.81 -13.21L-25.10 -13.84L-26.41 -14.47L-27.72 -15.11L-29.04 -15.76L-30.38 -16.42L-31.72 -17.08L-33.07 -17.75L-34.43 -18.43L-35.80 -19.11L-37.18 -19.81L-38.58 -20.51L-39.98 -21.22L-41.39 -21.94L-42.76 -22.67L-43.99 22.50L-42.69 21.84L-41.44 21.21L-40.20 20.59L-38.95 20.00L-37.71 19.43L-36.47 18.88L-35.22 18.35L-33.98 17.85L-32.74 17.36L-31.50 16.89L-30.26 16.44L-29.02 16.01L-27.79 15.60L-26.55 15.21L-25.32 14.84L-24.09 14.49L-22.86 14.15L-21.63 13.84L-20.41 13.54L-19.19 13.26L-17.97 13.00L-16.75 12.75L-15.53 12.52L-14.32 12.31L-13.11 12.12L-11.91 11.94L-10.70 11.78L-9.50 11.64L-8.31 11.51L-7.11 11.40L-5.92 11.30L-4.74 11.22L-3.55 11.16L-2.38 11.11L-1.20 11.08L-0.03 11.06L1.14 11.05L2.30 11.07L3.46 11.09L4.61 11.13L5.76 11.19L6.91 11.25L8.05 11.34L9.19 11.43L10.32 11.54L11.44 11.67L12.57 11.80L13.68 11.95L14.80 12.12L15.90 12.29L17.01 12.48L18.10 12.68L19.19 12.90L20.28 13.12L21.36 13.36L22.44 13.61L23.51 13.88L24.57 14.15L25.63 14.44L26.68 14.74L27.73 15.05L28.77 15.37L29.81 15.70L30.84 16.05L31.86 16.40L32.88 16.77L33.89 17.15L34.90 17.53L35.89 17.93L36.89 18.34L37.88 18.76L38.86 19.19L39.83 19.63L40.80 20.08L41.76 20.54L42.72 21.01L43.66 21.49L44.61 21.98L45.54 22.48L46.47 22.99L47.39 23.51L48.31 24.04L49.22 24.57L50.12 25.12L51.02 25.68L51.91 26.24L52.79 26.81L53.66 27.40L54.53 27.99Z" fill="#E0855F"></path>
    </g>
    <circle cx="59.78" cy="31.82" r="4.0" fill="#D96C4A"></circle>
  </g>
</svg>